<svg xmlns="http://www.w3.org/2000/svg" width="700" height="320" viewBox="0 0 700 320"><title>Illustrative scheduling calendar</title><rect width="700" height="320" fill="#fff7ed"/><g font-family="Arial" fill="#7c2d12"><text x="40" y="45" font-size="22">Illustrative Example · publishing windows</text><rect x="40" y="70" width="620" height="210" rx="10" fill="#fff" stroke="#fdba74"/><path d="M40 115h620M40 160h620M40 205h620M40 250h620M164 70v210M288 70v210M412 70v210M536 70v210" stroke="#fed7aa"/><text x="80" y="100">Mon</text><text x="205" y="100">Tue</text><text x="330" y="100">Wed</text><text x="455" y="100">Thu</text><text x="580" y="100">Fri</text><rect x="55" y="125" width="90" height="22" rx="6" fill="#fed7aa"/><rect x="305" y="170" width="90" height="22" rx="6" fill="#86efac"/><rect x="555" y="215" width="90" height="22" rx="6" fill="#bfdbfe"/></g></svg>
